HIERARCHY
ROOT Root
{
	OFFSET 0.00000 0.00000 0.00000
	CHANNELS 6 Xposition Yposition Zposition Zrotation Xrotation Yrotation
	JOINT Hips
	{
		OFFSET 0 0 0	
		CHANNELS 3 Zrotation Xrotation Yrotation
		JOINT Spine
		{
			OFFSET 0 4 0	
			CHANNELS 3 Zrotation Xrotation Yrotation
			JOINT Spine1
			{
				OFFSET 0 19.4 0	
				CHANNELS 3 Zrotation Xrotation Yrotation
				JOINT Spine2
				{
					OFFSET 0 16.6 0	
					CHANNELS 3 Zrotation Xrotation Yrotation
					JOINT LeftCollar
					{
						OFFSET 0 10 0	
						CHANNELS 3 Zrotation Xrotation Yrotation
						JOINT LeftArm
						{
							OFFSET 15.6 -2 3	
							CHANNELS 3 Zrotation Xrotation Yrotation
							JOINT LeftForeArm
							{
								OFFSET 3.5 -27 -1	
								CHANNELS 3 Zrotation Xrotation Yrotation
								JOINT LeftHand
								{
									OFFSET 1 -27 1	
									CHANNELS 3 Zrotation Xrotation Yrotation
									End Site
									{
										OFFSET 0 -15 0
									}
								}
							}
						}
					}
					JOINT RightCollar
					{
						OFFSET 0 10 0	
						CHANNELS 3 Zrotation Xrotation Yrotation
						JOINT RightArm
						{
							OFFSET -15.6 -2 3	
							CHANNELS 3 Zrotation Xrotation Yrotation
							JOINT RightForeArm
							{
								OFFSET -3.5 -27 -1	
								CHANNELS 3 Zrotation Xrotation Yrotation
								JOINT RightHand
								{
									OFFSET -1 -27 1	
									CHANNELS 3 Zrotation Xrotation Yrotation
									End Site
									{
										OFFSET 0 -15 0
									}
								}
							}
						}
					}
					JOINT Neck
					{
						OFFSET 0 10 0	
						CHANNELS 3 Zrotation Xrotation Yrotation
						JOINT Head
						{
							OFFSET 0 12.7 3	
							CHANNELS 3 Zrotation Xrotation Yrotation
							End Site
							{
								OFFSET 0 12.7 3
							}
						}
					}
				}
			}
		}
	}
	JOINT LeftHip
	{
		OFFSET 0 0 0	
		CHANNELS 3 Zrotation Xrotation Yrotation
		JOINT LeftUpLeg
		{
			OFFSET 8.8 -6 0	
			CHANNELS 3 Zrotation Xrotation Yrotation
			JOINT LeftLeg
			{
				OFFSET 0 -39 2	
				CHANNELS 3 Zrotation Xrotation Yrotation
				JOINT LeftFoot
				{
					OFFSET 0 -43 -2	
					CHANNELS 3 Zrotation Xrotation Yrotation
					JOINT LeftFootFront
					{
						OFFSET 0 -7 8.5	
						CHANNELS 3 Zrotation Xrotation Yrotation
						End Site
						{
							OFFSET 0 -0.5 9
						}
					}
				}
				JOINT LeftHeel
				{
					OFFSET 0 -43 -2	
					CHANNELS 3 Zrotation Xrotation Yrotation
					End Site
					{
						OFFSET 0 -7.5 -5
					}
				}
			}
		}
	}
	JOINT RightHip
	{
		OFFSET 0 0 0	
		CHANNELS 3 Zrotation Xrotation Yrotation
		JOINT RightUpLeg
		{
			OFFSET -8.8 -6 0	
			CHANNELS 3 Zrotation Xrotation Yrotation
			JOINT RightLeg
			{
				OFFSET 0 -39 2	
				CHANNELS 3 Zrotation Xrotation Yrotation
				JOINT RightFoot
				{
					OFFSET 0 -43 -2	
					CHANNELS 3 Zrotation Xrotation Yrotation
					JOINT RightFootFront
					{
						OFFSET 0 -7 8.5	
						CHANNELS 3 Zrotation Xrotation Yrotation
						End Site
						{
							OFFSET 0 -0.5 9
						}
					}
				}
				JOINT RightHeel
				{
					OFFSET 0 -43 -2	
					CHANNELS 3 Zrotation Xrotation Yrotation
					End Site
					{
						OFFSET 0 -7.5 -5
					}
				}
			}
		}
	}
}
MOTION
Frames: 18
Frame Time: 0.1
0 95.869 0 -0 0 -0 -2.6288 2.703 3.0953 1.3988 -0.029421 -0.65719 1.3988 -0.029422 -0.65719 1.1751 -0.023636 -0.55209 -0 0 -0 0.13595 0.85629 -0.18142 -1.7232 -1.3062 1.8972 2.538 -0.59326 2.7489 -0 0 -0 -1.634 0.25033 7.5007 -0.44317 -2.076 -12.998 2.366 -0.11969 -11.969 -0.7546 -2.9907 0.29617 -0.7546 -2.9907 0.29617 -2.6288 2.703 3.0953 3.935 -2.5134 1.5411 -1.4972 -0.32642 -0.65156 0.35963 -0.14458 -3.4883 -0 0 1.0422e-08 -0 0 -0 -2.6288 2.703 3.0953 1.3903 -3.4311 -1.414 0.79022 1.6049 0.86878 2.1862 0.2541 -3.3624 0 0 -1.5008e-08 -0 0 -0 
0 95.884 0 -0 0 -0 -2.8169 3.163 3.0859 1.4572 -0.20689 -0.63773 1.4572 -0.20689 -0.63773 1.2242 -0.1727 -0.53605 -0 0 -0 0.0047501 0.77259 -0.24141 -1.6727 -1.2093 1.9099 2.6218 -0.57134 2.7839 -0 0 -0 -1.6731 0.2899 7.4241 -0.42497 -2.1221 -13.051 2.2781 -0.035081 -11.881 -0.7474 -2.9419 0.28358 -0.7474 -2.9419 0.28358 -2.8169 3.163 3.0859 4.127 -2.9068 1.5912 -1.5497 -0.53068 -0.68229 0.38199 -0.012734 -3.4573 -0.0061138 -0.0081048 -0.014399 -0 0 -0 -2.8169 3.163 3.0859 1.5476 -3.85 -1.445 0.72011 1.5765 0.96073 2.2629 0.23131 -3.3891 0.025225 -0.0029671 0.011302 -0 0 -0 
0 95.894 0 -0 0 -0 -2.8258 2.4719 2.8199 1.4876 0.1651 -0.43623 1.4876 0.1651 -0.43623 1.2495 0.13944 -0.36615 -0 0 -0 -0.067143 0.37375 -0.62136 -1.6833 -1.178 2.0345 2.7423 -0.56075 2.7298 -0 0 -0 -1.5736 0.13998 7.2427 -0.53544 -2.2894 -13.241 2.1698 -0.087711 -11.84 -0.73863 -3.0368 0.12452 -0.73863 -3.0368 0.12452 -2.8258 2.4719 2.8199 4.1298 -2.1444 1.8412 -1.5035 -0.56363 -0.74556 0.37861 -0.043216 -3.4457 0.016265 -0.017207 -0.011765 -0 0 -0 -2.8258 2.4719 2.8199 1.6818 -3.1899 -1.2355 0.52816 1.4563 1.0349 2.4065 0.37911 -3.4132 0.041791 -0.0060259 0.0023304 -0 0 -0 
0 95.892 0 -0 0 -0 -2.7622 2.6913 2.7754 1.4256 0.067831 -0.37536 1.4256 0.067831 -0.37536 1.1975 0.057606 -0.31519 -0 0 -0 0.041426 0.53708 -0.67592 -1.681 -1.3753 2.1276 2.6188 -0.46487 2.5251 -0 0 -0 -1.6982 0.12294 7.184 -0.26721 -2.3344 -13.08 2.0444 -0.041094 -12.06 -0.77192 -2.9368 0.020318 -0.77192 -2.9368 0.020318 -2.7622 2.6913 2.7754 3.9034 -2.5041 1.8247 -1.3909 -0.47822 -0.70874 0.44011 -0.0054915 -3.4247 0.0076651 -0.00985 -0.010814 -0 0 -0 -2.7622 2.6913 2.7754 1.5296 -3.3384 -1.2693 0.55584 1.3868 1.1581 2.5006 0.37356 -3.4557 0.03947 0.018799 0.0080315 -0 0 -0 
0 95.884 0 -0 0 -0 -2.5869 3.1649 2.7985 1.3188 -0.16979 -0.36746 1.3188 -0.16979 -0.36746 1.1079 -0.14206 -0.30893 -0 0 -0 0.096614 0.72924 -0.72746 -1.6784 -1.4048 2.0671 2.7398 -0.51419 2.6975 -0 0 -0 -1.7323 0.55659 7.2272 -0.13525 -2.528 -13.251 2.0166 -0.073043 -11.931 -0.74764 -2.8201 0.10898 -0.74764 -2.8201 0.10898 -2.5869 3.1649 2.7985 3.7685 -2.9182 1.8074 -1.243 -0.59991 -0.77819 0.234 0.053725 -3.3463 0.0037344 -0.010518 -0.0025133 -0 0 -0 -2.5869 3.1649 2.7985 1.3312 -3.7854 -1.3022 0.52161 1.124 1.217 2.5803 0.63168 -3.5042 -0.00033365 -0.029939 -0.009146 -0 0 -0 
0 95.879 0 -0 0 -0 -2.7973 3.5107 2.7593 1.4397 -0.3003 -0.3393 1.4397 -0.3003 -0.3393 1.2095 -0.25168 -0.28552 -0 0 -0 -0.0062145 0.69689 -0.76359 -1.5714 -1.3698 2.0862 2.6054 -0.38418 2.6235 -0 0 -0 -1.7661 0.66408 7.3091 -0.24121 -2.5796 -13.216 1.9941 -0.21487 -12.053 -0.80616 -2.8221 0.087795 -0.80616 -2.8221 0.087795 -2.7973 3.5107 2.7593 3.9779 -3.3073 1.8227 -1.2737 -0.5085 -0.82807 0.25817 -0.010798 -3.2372 0.0094483 -0.01371 -0.0031267 -0 0 -0 -2.7973 3.5107 2.7593 1.4419 -4.2182 -1.3624 0.64497 1.2956 1.3684 2.5352 0.51116 -3.5481 0.045948 -0.00084692 0.0023916 -0 0 -0 
0 95.877 0 -0 0 -0 -2.5221 2.4562 2.4875 1.2974 0.24826 -0.19951 1.2974 0.24826 -0.19951 1.0898 0.20884 -0.16721 -0 0 -0 0.10795 0.18201 -1.0535 -1.4215 -1.2541 2.1458 2.491 -0.48632 2.634 -0 0 -0 -1.4208 0.027748 7.1097 -0.4317 -2.4181 -13.223 1.9858 -0.060703 -11.993 -0.79479 -2.8547 -0.071195 -0.79479 -2.8547 -0.071195 -2.5221 2.4562 2.4875 3.7907 -2.1579 2.0172 -1.4255 -0.51137 -0.95047 0.387 -0.086843 -3.1283 0.021784 -0.0058814 -0.015566 -0 0 -0 -2.5221 2.4562 2.4875 1.3391 -3.19 -1.1473 0.22576 1.2856 1.3469 2.891 0.55407 -3.4961 0.049998 0.016044 -0.006616 -0 0 -0 
0 95.88 0 -0 0 -0 -2.6304 2.3874 2.6167 1.3936 0.2331 -0.23996 1.3936 0.2331 -0.23996 1.1706 0.1962 -0.20119 -0 0 -0 -0.021559 0.39217 -1.1078 -1.4632 -1.4641 1.8847 2.5401 -0.35989 2.8252 -0 0 -0 -1.4464 0.40715 7.0609 -0.62675 -2.5659 -13.05 1.9514 -0.18262 -12.052 -0.89243 -2.7632 -0.053935 -0.89243 -2.7632 -0.053936 -2.6304 2.3874 2.6167 3.9713 -2.0462 1.8969 -1.4742 -0.62474 -1.0082 0.38022 -0.03428 -3.0933 0.010392 -0.0090673 -0.001349 -0 0 -0 -2.6304 2.3874 2.6167 1.5092 -3.0107 -1.2797 0.062998 1.4252 1.3954 3.0353 0.30372 -3.5258 0.025458 -0.029016 0.0045083 -0 0 -0 
0 95.877 0 -0 0 -0 -2.7121 2.7448 2.7793 1.4714 0.027574 -0.27668 1.4714 0.027574 -0.27668 1.236 0.02364 -0.23237 -0 0 -0 -0.18789 0.67627 -1.1794 -1.4604 -1.4511 1.9833 2.4721 -0.42938 2.7505 -0 0 -0 -1.6144 0.381 7.035 -0.56642 -2.3065 -12.869 1.8836 -0.1684 -12.192 -0.93221 -2.6882 -0.083643 -0.93221 -2.6882 -0.083643 -2.7121 2.7448 2.7793 4.1168 -2.4445 1.7965 -1.5789 -0.67804 -1.1232 0.40778 0.04098 -3.0092 0.0094034 -0.013432 0.00099029 -0 0 -0 -2.7121 2.7448 2.7793 1.5316 -3.4732 -1.4504 0.11796 1.4988 1.4552 3.0357 0.29638 -3.564 0.021653 -0.021167 0.00030625 -0 0 -0 
0 95.854 0 -0 0 -0 -2.4742 2.9131 2.8191 1.3382 -0.039636 -0.26071 1.3382 -0.039636 -0.26071 1.1241 -0.032885 -0.21906 -0 0 -0 -0.14496 0.67263 -1.1987 -1.4159 -1.4742 1.9153 2.5721 -0.45714 2.653 -0 0 -0 -1.551 0.31296 6.9634 -0.44828 -2.2239 -12.713 1.7927 -0.19636 -12.317 -0.77974 -2.7705 -0.12572 -0.77974 -2.7705 -0.12572 -2.4742 2.9131 2.8191 3.8809 -2.6194 1.7512 -1.5555 -0.5686 -1.1983 0.38419 -0.067119 -2.9264 -0.0057561 -0.011689 -0.0070786 -0 0 -0 -2.4742 2.9131 2.8191 1.3779 -3.692 -1.5133 0.061595 1.6865 1.4874 3.0124 0.14542 -3.5693 0.02769 0.01592 0.00037663 -0 0 -0 
0 95.828 0 -0 0 -0 -2.4477 2.6677 2.8303 1.2441 0.12468 -0.20995 1.2441 0.12468 -0.20995 1.045 0.10504 -0.17618 -0 0 -0 0.13873 0.5803 -1.6296 -1.4483 -1.427 2.0174 2.5618 -0.62075 2.8218 -0 0 -0 -1.4986 0.041031 6.8483 -0.33734 -2.1288 -12.674 1.861 -0.28675 -12.321 -0.72961 -2.9751 -0.22271 -0.72961 -2.9751 -0.22271 -2.4477 2.6677 2.8303 3.7577 -2.3026 1.7218 -1.5074 -0.49011 -1.2622 0.43847 -0.23004 -2.8751 0.0072366 -0.0075993 -0.0016143 -0 0 -0 -2.4477 2.6677 2.8303 1.3126 -3.3268 -1.5569 0.10426 1.5708 1.4815 3.0505 0.15888 -3.5403 0.025888 0.018506 0.0005538 -0 0 -0 
0 95.827 0 -0 0 -0 -2.157 3.3062 2.8943 1.0768 -0.17971 -0.18453 1.0768 -0.17971 -0.18453 0.90451 -0.15073 -0.15523 -0 0 -0 0.28993 0.76849 -1.7445 -1.4952 -1.2873 2.1614 2.63 -0.53312 4.1768 -0 0 -0 -1.312 0.29723 6.6633 -0.40059 -2.0633 -12.502 1.8556 -0.24194 -13.382 -0.65201 -2.8027 -0.3165 -0.65201 -2.8027 -0.3165 -2.157 3.3062 2.8943 3.3546 -3.0006 1.5999 -1.3958 -0.2766 -1.2719 0.41931 -0.38477 -2.7861 0.0072684 -0.017135 -1.6334e-05 -0 0 -0 -2.157 3.3062 2.8943 0.91371 -4.0571 -1.6871 0.12168 1.5226 1.5659 3.1323 0.32866 -3.573 0.036315 -0.00015336 -0.0037268 -0 0 -0 
0 95.863 0 -0 0 -0 -3.0539 4.1678 2.724 1.4681 -0.56933 -0.092692 1.4681 -0.56933 -0.092692 1.2333 -0.47808 -0.078841 -0 0 -0 -0.149 0.97424 -1.5774 -1.3564 -0.63605 2.5896 0.78052 -1.9019 14.868 -0 0 -0 -1.5825 0.54997 6.8119 -0.8355 -1.6756 -12.964 4.9658 -1.5107 -21.011 -0.86622 -3.0928 -0.29905 -0.86622 -3.0928 -0.29905 -3.0539 4.1678 2.724 4.2433 -3.5358 2.0063 -1.4832 -0.77839 -1.5036 0.47728 -0.24649 -2.6815 0.022274 -0.0051594 0.0017844 -0 0 -0 -3.0539 4.1678 2.724 1.9376 -4.7385 -1.5035 0.3026 1.1734 1.6966 2.8437 0.46073 -3.6416 0.046307 0.0085405 -0.0124 -0 0 -0 
0 95.894 0 -0 0 -0 -2.7552 6.1517 2.3423 1.2568 -1.3485 -0.041003 1.2568 -1.3485 -0.041004 1.0558 -1.1327 -0.03643 -0 0 -0 0.24952 2.2098 -0.74208 -0.62303 -0.76401 5.9466 -2.6202 -3.5468 25.594 -0 0 -0 -1.2943 1.4961 6.7441 -1.4122 -3.0158 -14.749 8.6236 -4.1805 -31.62 -0.40376 -4.621 -0.089474 -0.40376 -4.621 -0.089474 -2.7552 6.1517 2.3423 3.8268 -5.4065 2.4332 -1.1937 -1.0437 -1.8811 0.27349 -0.063359 -2.24 0.017786 -0.007088 0.0013637 -0 0 -0 -2.7552 6.1517 2.3423 1.6179 -6.4399 -1.0958 -0.13334 1.9215 1.6377 3.278 -0.54352 -3.517 0.051813 0.099495 -0.025953 -0 0 -0 
0 95.922 0 -0 0 -0 -3.2994 6.7975 1.6722 1.5951 -1.2326 0.18574 1.5951 -1.2326 0.18574 1.3396 -1.0357 0.15371 -0 0 -0 -0.23774 1.674 -0.53121 0.50025 -1.3167 12.319 -7.2068 -6.6916 41.481 -0 0 -0 -1.1011 1.6605 6.6404 -2.864 -4.5937 -16.764 11.419 -9.9027 -47.419 -0.4155 -6.6911 0.0072791 -0.4155 -6.6911 0.0072793 -3.2994 6.7975 1.6722 4.4305 -6.323 2.5063 -1.1046 -0.75143 -1.6111 0.22086 -0.071404 -1.7924 0.012109 0.0075502 -0.013092 -0 0 -0 -3.2994 6.7975 1.6722 2.2284 -7.5812 -0.35656 -0.4089 1.9133 1.3485 3.6181 0.073893 -3.2532 0.002297 0.0015309 -0.027143 -0 0 -0 
0 95.957 0 -0 0 -0 -3.0721 8.4217 1.3739 1.3623 -1.5852 0.22417 1.3623 -1.5852 0.22417 1.1439 -1.3319 0.18576 -0 0 -0 -0.16092 1.8717 0.30654 1.1438 -1.5747 19.505 -11.515 -10.282 53.809 -0 0 -0 -0.94288 1.7299 7.249 -2.8191 -5.4816 -20.15 12.253 -17.014 -63.391 -0.0515 -7.7631 -0.081989 -0.0515 -7.7631 -0.081989 -3.0721 8.4217 1.3739 4.1615 -8.3829 2.0085 -1.3149 -0.75529 -1.0346 0.51251 0.39404 -1.496 0.0030961 -0.0095757 -0.0025457 -0 0 -0 -3.0721 8.4217 1.3739 2.0896 -9.6632 -0.047192 -0.49862 1.4891 1.22 3.7449 1.0099 -3.145 -0.03077 -0.0013576 -0.0059315 -0 0 -0 
0 96.008 0 -0 0 -0 -3.627 9.3499 0.95613 1.5149 -1.6418 0.40681 1.5149 -1.6418 0.40681 1.2717 -1.3799 0.33879 -0 0 -0 -0.72575 0.98399 1.2837 1.4815 -2.2013 24.73 -12.833 -14.521 65.843 -0 0 -0 -0.62237 1.6095 8.5532 -3.1671 -6.6199 -25.876 8.7011 -23.567 -76.611 0.24806 -8.5954 -0.28407 0.24806 -8.5954 -0.28407 -3.627 9.3499 0.95613 4.7901 -10.015 1.5774 -1.2976 -0.54165 -0.15968 0.51973 0.88409 -1.3468 0.0026701 0.0033732 0.00023113 -0 0 -0 -3.627 9.3499 0.95613 2.5886 -11.263 0.67122 -0.42292 1.2236 0.8477 3.9271 1.9983 -3.0018 -0.010374 -0.0042504 0.0044074 -0 0 -0 
0 96.043 0 -0 0 -0 -4.2583 10.381 0.68073 1.7204 -1.7026 0.53506 1.7204 -1.7026 0.53506 1.444 -1.4313 0.44599 -0 0 -0 -0.51766 -0.1591 1.0892 0.7827 -2.8573 31.248 -13.901 -18.308 72.769 -0 0 -0 -0.70455 1.0469 9.7201 -3.5035 -8.3005 -33.599 6.1186 -26.485 -83.552 0.56995 -9.2148 -0.46179 0.56995 -9.2148 -0.46179 -4.2583 10.381 0.68073 5.6583 -11.839 1.3806 -1.1222 0.23522 0.75544 0.20763 0.92251 -1.5295 -0.00031742 -0.0079263 -0.015807 -0 0 -0 -4.2583 10.381 0.68073 3.1858 -12.883 1.1656 -0.22543 0.99565 0.52927 3.9853 2.8957 -2.7782 -0.0025161 -0.02339 -0.009725 -0 0 -0 
